<?xml version="1.0" encoding="UTF-8"?>
<svg id="Layer_1" data-name="Layer 1" xmlns="http://www.w3.org/2000/svg" viewBox="0 0 239.59 38.4">
  <defs>
    <style>
      .cls-1 {
        fill: #fff;
      }
    </style>
  </defs>
  <path class="cls-1" d="M27.96,.64c-7.72,0-15.78,1.74-23.92,3.99-1.03,.21-2.04,.88-2.57,1.72-.49,.79-.67,1.58-.82,2.41C-.15,13.19-.05,17.54,.11,22.35c.04,1.1,.2,2.41,.71,3.2,.54,.8,1.46,1.31,2.56,1.48,1.41,.21,2.82,.38,4.23,.52l-.31,8.7c-.05,.69,.29,1.27,.71,1.6,.38,.29,.8,.41,1.23,.44,.86,.06,1.87-.3,2.37-1.26,2.19-4.22,3.57-6.09,6.32-8.9,7.16,.18,13.41-.22,20.48-.75,2.5-.07,4.22-2.11,4.67-3.74,1.36-4.23,1.57-9.46,1.71-14.74,.06-2.09-.67-4.15-1.95-5.23-1.22-.99-2.7-1.35-4.06-1.72-3.77-.85-7.54-1.31-10.83-1.34Zm10.29,3.31c1.36,.37,2.56,.72,3.31,1.34,1.26,1.34,1.22,2.23,1.2,3.68-.14,5.12-.39,10.09-1.54,13.86-.5,1.41-1.37,2.41-3.01,2.56-7.21,.53-13.46,.94-20.71,.74-.29,0-.56,.1-.76,.3-3.04,3.07-4.6,5.21-6.92,9.68-.05,.1-.17,.16-.31,.17-.1,0-.14-.08-.14-.15l.31-9.43c.02-.51-.4-1-.91-1.05-1.69-.16-3.38-.37-5.06-.62-.73-.11-.99-.31-1.19-.61-.35-.83-.34-1.33-.37-2.13-.16-4.77-.24-8.95,.49-13.1,.07-.61,.3-1.24,.54-1.77,.4-.63,1.02-.72,1.64-.9,7.96-2.2,15.74-3.84,23.07-3.85,3.59,.13,7.36,.49,10.35,1.27ZM10.77,12.04c-1.1,1.31-.99,3.1-.14,4.29,.44,.62,1.13,1.13,1.97,1.24,1.09,.09,1.78-.35,2.53-.86,1.35-1.18,1.49-3.23,.46-4.71-.52-.76-1.36-1.21-2.22-1.24-1.17,.01-1.97,.53-2.6,1.28h0Zm11.86-1.07c-1.09,.03-1.98,.79-2.51,1.61-.62,.93-.98,2.1-.48,3.25,.96,2.2,4.28,2.18,5.6-.06,.61-1.03,.45-2.2,0-3.06-.45-.85-1.14-1.54-2.13-1.7-.16-.03-.32-.04-.48-.03Zm9.62,.21c-.34,0-.69,.02-1.02,.11-1.31,.35-2.43,1.7-2.26,3.44,.09,.87,.49,1.72,1.21,2.31,.72,.58,1.77,.85,2.88,.62,1.27-.26,2.06-1.28,2.32-2.27,.26-.99,.2-2-.41-2.82-.64-.86-1.65-1.37-2.72-1.38h0Zm-18.97,1.62c.24,0,.44,.08,.64,.37,.44,.64,.32,1.61-.13,2.01-.45,.39-.73,.42-.92,.4-.2-.03-.4-.16-.57-.41-.34-.48-.44-1.26,0-1.81,.24-.32,.68-.51,.98-.55h0Zm9.48,.22s.46,.25,.67,.64c.2,.38,.24,.74,.05,1.07-.58,.98-1.8,.71-1.99,.29-.07-.16-.02-.81,.32-1.32,.33-.51,.76-.7,.95-.67h0Zm10.56,.75c.06,.08,.21,.64,.1,1.08-.12,.44-.31,.72-.78,.81-.6,.12-.94,0-1.19-.21-.25-.2-.42-.55-.46-.92-.09-.92,.24-1.13,.76-1.27,.61-.15,1.3,.11,1.57,.51Z"/>
  <path class="cls-1" d="M57.6,4.76c.02-.26,.11-.49,.29-.7,.17-.21,.43-.32,.7-.31h6.83c.23,0,.47,.1,.71,.29,.23,.17,.37,.44,.37,.72V15.65h11.42V4.76c0-.28,.1-.51,.29-.71,.19-.2,.44-.3,.75-.3h6.73c.31,0,.57,.08,.8,.23,.23,.15,.35,.4,.35,.74V36.86c0,.34-.1,.59-.3,.76-.2,.17-.46,.25-.78,.25h-6.8c-.31,0-.56-.08-.75-.25-.19-.17-.29-.42-.29-.76v-13.05h-11.42v13.05c0,.32-.1,.57-.31,.75-.21,.18-.49,.26-.84,.26h-6.76c-.64,0-.97-.3-.99-.9,0,0,0-32.22,0-32.22Zm62.88,32.72c-.2,.17-.41,.28-.63,.32-.21,.04-.42,.07-.63,.07h-3.47c-.28,0-.51-.05-.71-.15-.2-.1-.37-.23-.51-.4-.14-.17-.26-.37-.34-.58-.09-.22-.17-.44-.23-.67l-.71-2.94c-.23,.47-.56,1.01-1,1.62-.47,.64-1.03,1.21-1.67,1.7-.67,.53-1.48,.97-2.41,1.33-.93,.36-2.01,.54-3.22,.54-1.75,0-3.33-.34-4.76-1.01-1.4-.65-2.64-1.59-3.64-2.76-1-1.16-1.78-2.52-2.33-4.08-.55-1.55-.83-3.21-.83-4.97V10.46c0-.58,.13-1.02,.38-1.32,.25-.3,.65-.45,1.21-.45h5.31c.66,0,1.11,.11,1.36,.33,.25,.22,.37,.65,.37,1.3v14.96c0,.66,.15,1.28,.45,1.87,.3,.59,.69,1.11,1.18,1.56,.49,.45,1.04,.81,1.67,1.07,.62,.26,1.25,.39,1.9,.39,.55,0,1.12-.13,1.71-.39,.59-.26,1.14-.62,1.63-1.05,.5-.44,.91-.95,1.23-1.54,.32-.59,.48-1.21,.48-1.87V10.39c0-.26,.05-.52,.15-.78,.1-.26,.25-.46,.45-.6,.2-.12,.39-.21,.56-.25s.38-.07,.61-.07h5.19c.66,0,1.13,.16,1.42,.48,.29,.32,.44,.75,.44,1.29v25.72c0,.29-.07,.56-.19,.8s-.31,.44-.54,.57c0,0,.14-.07,.14-.07Zm26.68-3.17c-.41,.41-.87,.86-1.37,1.33-.5,.47-1.05,.92-1.64,1.33-.6,.42-1.25,.76-1.93,1.02-.71,.27-1.47,.41-2.23,.4-2.08,0-4-.39-5.76-1.17-1.71-.75-3.25-1.84-4.53-3.21-1.26-1.36-2.25-2.95-2.96-4.79-.71-1.84-1.07-3.81-1.07-5.93s.36-4.11,1.07-5.94c.71-1.83,1.7-3.42,2.96-4.78,1.27-1.36,2.82-2.45,4.53-3.19,1.76-.77,3.67-1.16,5.76-1.16,.84,0,1.61,.12,2.31,.37,.67,.23,1.31,.55,1.91,.94,.57,.38,1.1,.82,1.59,1.3,.48,.48,.94,.95,1.37,1.41V1.75c0-.49,.15-.9,.45-1.24,.3-.34,.75-.51,1.35-.51h5.17c.2,0,.41,.04,.63,.13,.22,.09,.43,.2,.61,.36,.18,.15,.33,.34,.45,.55,.12,.22,.17,.45,.17,.71V36.1c0,1.18-.62,1.77-1.86,1.77h-4.5c-.31,0-.54-.04-.71-.12-.17-.07-.31-.19-.43-.33-.13-.17-.23-.35-.31-.55-.11-.26-.22-.52-.34-.77l-.67-1.79h0Zm-13.21-11.01c0,.97,.15,1.93,.47,2.84,.31,.88,.76,1.64,1.35,2.29,.59,.65,1.3,1.17,2.1,1.53,.82,.38,1.73,.56,2.72,.56s1.9-.18,2.77-.53c.84-.34,1.61-.83,2.26-1.46,.65-.63,1.18-1.37,1.55-2.19,.39-.84,.61-1.75,.65-2.71v-.32c0-.96-.18-1.91-.55-2.8-.36-.87-.87-1.67-1.53-2.34-.65-.68-1.44-1.22-2.3-1.6-.9-.39-1.88-.59-2.86-.59-1,0-1.9,.19-2.72,.59-.82,.39-1.52,.92-2.1,1.6-.59,.69-1.05,1.49-1.35,2.34-.32,.9-.47,1.85-.47,2.8h0Zm48.72,11.01c-.41,.41-.87,.86-1.37,1.33s-1.05,.92-1.64,1.33c-.6,.42-1.25,.76-1.93,1.02-.71,.27-1.47,.41-2.23,.4-2.08,0-4-.39-5.76-1.17-1.71-.75-3.25-1.84-4.53-3.21-1.26-1.36-2.25-2.95-2.96-4.79-.71-1.84-1.07-3.81-1.07-5.93s.36-4.11,1.07-5.94,1.7-3.42,2.96-4.78c1.27-1.36,2.82-2.45,4.53-3.19,1.75-.77,3.67-1.16,5.76-1.16,.84,0,1.61,.12,2.31,.37,.67,.23,1.31,.55,1.91,.94,.57,.38,1.1,.82,1.59,1.3,.48,.48,.94,.95,1.37,1.41V1.75c0-.49,.15-.9,.45-1.24,.3-.34,.75-.51,1.35-.51h5.17c.2,0,.41,.04,.63,.13,.22,.09,.43,.2,.61,.36,.18,.15,.33,.34,.45,.55,.11,.22,.17,.45,.17,.71V36.1c0,1.18-.62,1.77-1.86,1.77h-4.5c-.31,0-.54-.04-.71-.12-.17-.08-.31-.19-.43-.33-.13-.17-.23-.35-.31-.55-.11-.26-.22-.52-.35-.77l-.67-1.79h0Zm-13.21-11.01c0,.97,.15,1.93,.47,2.84,.32,.88,.76,1.64,1.35,2.29,.59,.65,1.3,1.17,2.1,1.53,.82,.38,1.73,.56,2.72,.56s1.9-.18,2.77-.53c.84-.34,1.61-.83,2.26-1.46,.65-.63,1.17-1.37,1.55-2.19,.39-.84,.61-1.75,.66-2.71v-.32c0-.96-.18-1.91-.55-2.8-.36-.87-.87-1.67-1.53-2.34-.65-.68-1.44-1.22-2.3-1.6-.9-.39-1.88-.59-2.86-.59-1,0-1.9,.19-2.72,.59-.82,.39-1.52,.92-2.1,1.6-.59,.69-1.05,1.49-1.35,2.34-.32,.9-.47,1.85-.47,2.8h0ZM197.6,1.77c0-.49,.12-.9,.37-1.24,.25-.34,.67-.51,1.26-.51h5.63c.15,0,.32,.04,.48,.13,.18,.09,.34,.21,.47,.36,.15,.15,.27,.34,.37,.55,.1,.22,.15,.45,.15,.71V36.1c0,.58-.16,1.02-.49,1.32-.33,.3-.75,.45-1.27,.45h-5.33c-.6,0-1.02-.15-1.26-.45-.24-.3-.37-.74-.37-1.32V1.77Zm38.7,32.61c-1.33,1.23-2.87,2.22-4.55,2.91-1.7,.7-3.52,1.06-5.35,1.05-2.1,0-4.08-.38-5.95-1.15-1.83-.74-3.5-1.82-4.92-3.18-1.42-1.37-2.56-2.99-3.35-4.79-.83-1.84-1.24-3.84-1.24-6,0-1.35,.16-2.65,.49-3.92,.32-1.24,.79-2.43,1.4-3.55,.61-1.1,1.35-2.13,2.21-3.05,.86-.92,1.84-1.72,2.91-2.38,1.09-.67,2.27-1.18,3.49-1.54,1.29-.37,2.63-.56,3.98-.55,1.27,0,2.51,.17,3.7,.51,1.2,.34,2.32,.81,3.37,1.42,1.05,.61,2.01,1.35,2.88,2.21,.86,.84,1.62,1.79,2.25,2.81,.63,1.02,1.12,2.12,1.46,3.26,.34,1.16,.52,2.35,.52,3.57,0,.8-.01,1.45-.04,1.95-.02,.5-.14,.91-.36,1.21-.21,.3-.57,.51-1.07,.62-.5,.12-1.23,.17-2.19,.17h-16.55c.15,.98,.46,1.8,.93,2.46,.43,.62,.98,1.16,1.62,1.57,.61,.39,1.26,.67,1.95,.84,.64,.16,1.29,.25,1.95,.25,.55,0,1.12-.06,1.7-.17,.57-.11,1.14-.27,1.69-.46,.52-.18,1.02-.4,1.49-.67,.45-.25,.82-.52,1.09-.79,.24-.2,.46-.35,.63-.45,.18-.1,.36-.15,.56-.15s.4,.07,.61,.21c.25,.18,.49,.38,.7,.6l2.44,2.76c.17,.2,.28,.38,.32,.54,.05,.16,.07,.33,.07,.49,0,.31-.09,.57-.25,.79-.17,.22-.37,.42-.6,.59h0Zm-11.05-19.14c-.6,0-1.18,.12-1.74,.36-.57,.24-1.1,.56-1.57,.95-.49,.4-.93,.85-1.32,1.36-.37,.48-.69,.99-.95,1.54h11.74c-.31-.58-.66-1.13-1.04-1.66-.37-.5-.8-.95-1.29-1.33-.5-.39-1.06-.69-1.65-.9-.62-.22-1.34-.32-2.17-.32Z"/>
</svg>